<?xml version="1.0" encoding="utf-8"?>
<!-- Generator: Adobe Illustrator 30.2.1, SVG Export Plug-In . SVG Version: 9.03 Build 0)  -->
<svg version="1.1" baseProfile="tiny" id="Capa_1" xmlns="http://www.w3.org/2000/svg" xmlns:xlink="http://www.w3.org/1999/xlink"
	 x="0px" y="0px" width="100px" height="100px" viewBox="0 0 100 100" overflow="visible" xml:space="preserve">
<g id="lO40Wh.tif">
	<g>
		<path fill="#080603" d="M85.1,2c0,0.3,0.1,0.5,0.3,0.8l9.9,19.5v9.6c-0.6,1.8-1.4,3.5-3.2,4.5l0,29.7l3.2,0.1v32.1l-90,0l0-32.1
			l3.2-0.1l0-29.7c-1.8-1.2-3-2.9-3.2-5.1c-0.2-3,0-5.8,0-8.8L15.5,2H85.1z M15.3,24.4l5.5-19.2c-1.2-0.1-2.1-0.1-3.2,0L8.8,22.6
			c-0.3,0.6-0.5,1.2-0.2,1.8L15.3,24.4z M24.8,24.4l2.7-19.1l-3.3,0l-5.5,19.2L24.8,24.4z M34.2,24.4l0-19.1c-1.2-0.1-2.2,0-3.4,0
			l-2.8,19.2L34.2,24.4z M43.9,24.4l0-19.2l-6.4,0l0,19.2L43.9,24.4z M53.5,24.4l0-19.2l-6.4,0l0,19.2L53.5,24.4z M63.1,24.4l0-19.2
			l-6.4,0l0,19.2L63.1,24.4z M72.5,24.4L69.7,5.2c-1.2,0-2.3-0.1-3.4,0l0,19.2L72.5,24.4z M81.8,24.4L76.3,5.2l-3.3,0l2.7,19.2
			L81.8,24.4z M91.9,23L83,5.2c-1.2,0-2.2-0.2-3.2,0.1l5.5,19.1l6.7,0C92,23.9,92.2,23.5,91.9,23z M14.9,31c0-1.1,0-2.1,0-3.3
			l-6.4,0c0,1.2,0,2.2,0,3.2c0.1,1.8,1.5,3.1,3.2,3.1C13.4,34.1,14.9,32.8,14.9,31z M24.6,30.8c0-1,0.1-2,0-3.1l-6.3,0
			c0,1.1,0,2.1,0,3.2c0,1.8,1.5,3.2,3.2,3.1C23.2,34.1,24.6,32.6,24.6,30.8z M34.2,30.7c0-1.1,0.1-2-0.1-3l-6.3,0
			c-0.1,1.1,0,2.2,0,3.3c0,1.8,1.6,3.1,3.3,3.1C32.9,34,34.2,32.6,34.2,30.7z M43.8,30.9c0-1.2,0.1-2.2-0.1-3.2l-6.3,0l0,2.7
			c0,1.9,1.1,3.5,3,3.7C42.1,34.2,43.8,32.9,43.8,30.9z M53.5,31l0-3.3l-6.4,0l0,3.3c0,1.8,1.6,3.1,3.3,3.1
			C52,34.1,53.5,32.8,53.5,31z M63.1,30.8l0-3.1l-6.4,0c0,1.2,0,2.2,0,3.2c0.1,1.8,1.6,3.1,3.2,3.1C61.7,34.1,63.1,32.6,63.1,30.8z
			 M72.7,31.1c0.1-1.2,0-2.2,0-3.4l-6.3,0c0,1.1,0,2.1,0,3.2c0,1.8,1.4,3.1,3.1,3.1C71.1,34.1,72.6,33,72.7,31.1z M82.4,30.9
			c0-1.1,0.1-2.1,0-3.1l-6.3,0c-0.1,1,0,1.8-0.1,2.7c-0.1,1.9,1.1,3.5,3,3.7C80.7,34.2,82.4,32.9,82.4,30.9z M92,30.9
			c0-1.2,0.1-2.2-0.1-3.2l-6.3,0l0,2.7c0,1.9,1.1,3.5,3,3.7C90.3,34.2,92,32.9,92,30.9z M68.2,43.8l1.5-3.8c1,0.3,2,0.6,3,1
			c-0.3,1-0.8,2.1-0.9,3c0.1,0.3,0.8,0.9,1.1,0.7c0.5-0.3,1.4-0.7,1.8-0.9l1.4-3.8c1,0.3,2,0.6,3,1l-1,3.1c1.3,0.8,2.6,2.1,2.6,3.7
			l0.1,5.4l4.8,0l0,12.8c1.2,0.1,2.1,0.1,3.3,0l0-28.9c-1.9,0-3.5-0.8-4.8-2.2c-2.6,2.9-7,3-9.6,0c-2.6,2.9-7,3-9.6,0
			c-2.6,2.9-7,3-9.7,0c-2.6,3-7.1,3-9.6,0c-2.7,3-7,2.9-9.7,0c-2.6,3-7,2.9-9.6,0c-2.7,3-7,2.9-9.7,0c-1.3,1.5-3,2.2-4.8,2.2l0,28.9
			l4.8,0c-1.3-1.8-1.6-3.7-1.6-5.8c0-2.1,1.2-3.7,3.4-3.8c0.4,0,0.8,0.1,1.4-0.1c-1.6-1.9-2.4-6.8-0.6-8.6c0.8-0.8,1.8-0.9,2.9-0.9
			c2.2,0,4.3,0.3,6,1.9c0.8-1.7,2.2-1.9,3.7-1.9c4.7-0.2,8.6,3.1,8.8,7.8l0.1,2.1c4.3,1,6.9,5,6.3,9.4l6.5,0l0-12.8l4.8-0.1l0-4.5
			c0-2.3,1.3-4.3,3.6-4.9l1.3-3.9l3,1l-0.9,3.1c0,0.3,0.8,0.8,1.1,0.7C66.8,44.5,67.9,44.3,68.2,43.8z M64.7,53.3l0-4.8
			c0-1-0.9-1.6-1.7-1.5c-0.8,0.1-1.5,0.7-1.5,1.7l0,4.7L64.7,53.3z M71.2,53.4l-0.1-4.8c0-1-0.9-1.6-1.7-1.5
			c-0.8,0.1-1.4,0.8-1.4,1.7l0,4.7L71.2,53.4z M77.6,53.4l0-4.7c0-1-0.7-1.7-1.6-1.7c-0.7,0-1.6,0.6-1.6,1.5l0,4.9L77.6,53.4z
			 M26.3,51.6c-1.5-1.5-4.4-1.7-4.9-1.3c-0.1,0-0.6,3.1,1.3,4.9c2,2,4.9,1.4,5,1.2C28,55.5,27.7,52.9,26.3,51.6z M37.4,55.5
			c0.2-3.3-2.4-5.7-5.6-5.3c-0.3,0-0.6-0.1-0.7,0.1c-0.2,0.3-0.3,3.2,1.3,4.9c2,2,4.9,1.4,5,1.3C37.5,56.2,37.4,55.9,37.4,55.5z
			 M82.4,66.2l0-9.6l-25.7,0l0,9.6L82.4,66.2z M32.7,61.2c-1.7-1.7-4.7-1.5-4.8-1.3c-0.1,0.1-0.5,3,1.3,4.8c1.7,1.7,4.6,1.6,4.9,1.4
			C34.2,66.1,34.7,63.1,32.7,61.2z M43.8,65.1c0.1-3.2-2.3-5.5-5.4-5.3c-0.3,0-0.7-0.1-0.9,0.1c-0.2,0.2-0.4,3.2,1.4,4.9
			c1.9,1.8,4.8,1.4,4.9,1.2C43.9,65.8,43.8,65.5,43.8,65.1z M92,95.2l0-25.7l-83.5,0l0,25.7L92,95.2z"/>
		<path fill="#FED90F" d="M92,95.2l-83.5,0l0-25.7l83.5,0L92,95.2z M52.9,91.6l9.8-4.9c2.3-1.1,3.6-3.4,3.6-6l3.2-0.1l0-3.2l-4-0.1
			l3.5-3.6l-2.3-2.3l-3.7,3.6c-3-1.6-6.9-1.3-8.9,1.5l-2.9,3.9c-2.4-3.4-6.1-4.8-10.1-4.7c-1.2,0-2.1,0.2-2.9,0.9
			c-0.9,0.8-0.9,1.8-1,2.9C37,86.8,42.6,92.5,49.7,92C50.8,91.9,51.8,92.2,52.9,91.6z"/>
		<path fill="#F7BD09" d="M82.4,66.2l-25.7,0l0-9.6l25.7,0L82.4,66.2z M79.2,63l0-3.2l-19.2,0c-0.1,1.1-0.1,2.1,0,3.2L79.2,63z"/>
		<polygon fill="#F7BD09" points="43.9,24.4 37.4,24.4 37.4,5.2 43.8,5.2 		"/>
		<polygon fill="#DC0F1B" points="53.5,24.4 47.1,24.4 47.1,5.2 53.5,5.2 		"/>
		<polygon fill="#F7BD09" points="63.1,24.4 56.7,24.4 56.7,5.2 63.1,5.2 		"/>
		<path fill="#DC0F1B" d="M15.3,24.4l-6.7,0c-0.3-0.6-0.1-1.2,0.2-1.8l8.7-17.4c1.1-0.1,2.1-0.1,3.2,0L15.3,24.4z"/>
		<path fill="#DC0F1B" d="M91.9,23c0.3,0.5,0.1,0.9,0.1,1.4l-6.7,0L79.8,5.3c1.1-0.2,2.1-0.1,3.2-0.1L91.9,23z"/>
		<path fill="#DC0F1B" d="M34.2,24.4l-6.1,0.1l2.8-19.2c1.2,0,2.2,0,3.4,0L34.2,24.4z"/>
		<path fill="#DC0F1B" d="M72.5,24.4l-6.1,0.1l0-19.2c1.1-0.1,2.1-0.1,3.4,0L72.5,24.4z"/>
		<polygon fill="#F7BD09" points="24.8,24.4 18.7,24.4 24.2,5.2 27.5,5.2 		"/>
		<polygon fill="#F7BD09" points="81.8,24.4 75.8,24.4 73,5.2 76.3,5.2 		"/>
		<path fill="#DC0F1B" d="M53.5,31c0,1.8-1.5,3.1-3.1,3.1c-1.7,0-3.3-1.3-3.3-3.1l0-3.3l6.4,0L53.5,31z"/>
		<path fill="#DC0F1B" d="M92,30.9c0,2-1.7,3.3-3.4,3.2c-1.9-0.1-3-1.7-3-3.7l0-2.7l6.3,0C92.1,28.7,92.1,29.7,92,30.9z"/>
		<path fill="#FED90F" d="M63.1,30.8c0,1.8-1.4,3.2-3.2,3.3c-1.7,0-3.2-1.3-3.2-3.1c0-1.1,0-2.1,0-3.2l6.4,0L63.1,30.8z"/>
		<path fill="#FED90F" d="M43.8,30.9c0,2-1.7,3.3-3.4,3.2c-1.9-0.1-3-1.7-3-3.7l0-2.7l6.3,0C43.9,28.7,43.9,29.7,43.8,30.9z"/>
		<path fill="#DC0F1B" d="M14.9,31c0,1.8-1.5,3.1-3.1,3.1c-1.7,0-3.2-1.3-3.2-3.1c-0.1-1.1,0-2.1,0-3.2l6.4,0
			C14.9,28.9,14.9,29.9,14.9,31z"/>
		<path fill="#FED90F" d="M82.4,30.9c0,2-1.6,3.3-3.4,3.2c-1.9-0.1-3.2-1.7-3-3.7c0.1-0.9-0.1-1.7,0.1-2.7l6.3,0
			C82.4,28.7,82.4,29.7,82.4,30.9z"/>
		<path fill="#DC0F1B" d="M34.2,30.7c0,1.9-1.3,3.3-3.1,3.4c-1.7,0.1-3.3-1.3-3.3-3.1c0-1.1-0.1-2.1,0-3.3l6.3,0
			C34.3,28.7,34.2,29.6,34.2,30.7z"/>
		<path fill="#FED90F" d="M24.6,30.8c0,1.8-1.4,3.3-3.2,3.3c-1.7,0-3.2-1.3-3.2-3.1c0-1.1,0-2.1,0-3.2l6.3,0
			C24.6,28.8,24.5,29.8,24.6,30.8z"/>
		<path fill="#DC0F1B" d="M72.7,31.1c-0.1,1.9-1.7,3-3.3,3c-1.7-0.1-3-1.4-3.1-3.1c0-1.1,0-2.1,0-3.2l6.3,0
			C72.8,28.9,72.8,29.9,72.7,31.1z"/>
		<path fill="#7EB929" d="M26.3,51.6c1.4,1.3,1.7,3.9,1.4,4.8c-0.1,0.2-3,0.7-5-1.2c-1.9-1.9-1.4-4.9-1.3-4.9
			C22,49.9,24.8,50.1,26.3,51.6z"/>
		<path fill="#7EB929" d="M37.4,55.5c0,0.4,0.1,0.7,0,0.9c-0.1,0.1-3,0.7-5-1.3c-1.6-1.6-1.5-4.6-1.3-4.9c0.1-0.2,0.5-0.1,0.7-0.1
			C35,49.9,37.6,52.2,37.4,55.5z"/>
		<path fill="#7EB929" d="M43.8,65.1c0,0.4,0.1,0.7,0,0.9c-0.1,0.2-3,0.6-4.9-1.2c-1.8-1.8-1.5-4.7-1.4-4.9c0.2-0.2,0.6-0.1,0.9-0.1
			C41.5,59.6,44,61.9,43.8,65.1z"/>
		<path fill="#7EB929" d="M32.7,61.2c1.9,1.9,1.5,4.9,1.4,4.9c-0.3,0.2-3.2,0.4-4.9-1.4c-1.8-1.8-1.4-4.7-1.3-4.8
			C28.1,59.7,31,59.5,32.7,61.2z"/>
		<path fill="#F7BD09" d="M64.7,53.3l-3.2,0l0-4.7c0-0.9,0.6-1.6,1.5-1.7c0.8-0.1,1.7,0.6,1.7,1.5L64.7,53.3z"/>
		<path fill="#DC0F1B" d="M77.6,53.4l-3.2,0l0-4.9c0-0.9,0.8-1.5,1.6-1.5c0.9,0,1.6,0.7,1.6,1.7L77.6,53.4z"/>
		<path fill="#DC0F1B" d="M71.2,53.4l-3.2,0l0-4.7c0-0.9,0.6-1.6,1.4-1.7c0.8-0.1,1.7,0.6,1.7,1.5L71.2,53.4z"/>
		<path fill="#080603" d="M52.9,91.6c-1.1,0.5-2.1,0.3-3.2,0.3c-7.1,0.5-12.8-5.2-12.3-12.2c0.1-1.1,0.1-2.1,1-2.9
			c0.7-0.7,1.7-0.9,2.9-0.9c3.9-0.1,7.7,1.3,10.1,4.7l2.9-3.9c2.1-2.8,6-3.1,8.9-1.5l3.7-3.6l2.3,2.3l-3.5,3.6l4,0.1l0,3.2l-3.2,0.1
			c0,2.6-1.3,4.8-3.6,6L52.9,91.6z M53.5,87.7l7.8-3.9c1.4-0.7,2-2.2,1.7-3.7c-0.3-1.3-1.4-2.4-3-2.6c-1.4-0.2-2.9,0.3-3.7,1.6
			c-1,1.6-2.4,3.1-3.3,4.8C53.2,85.1,53.6,86.4,53.5,87.7z M50.2,88.7c0.1-0.9,0-1.6,0-2.3c-0.4-4.5-4.3-7.6-8.8-7.2
			c-0.3,0-0.6-0.1-0.7,0.2c-0.1,0.2,0,0.4,0,0.6c-0.3,4.3,2.6,8,6.8,8.7C48.4,88.8,49.3,88.8,50.2,88.7z"/>
		<path fill="#080603" d="M79.2,63l-19.3,0c-0.1-1.2-0.1-2.1,0-3.2l19.2,0L79.2,63z"/>
		<path fill="#7EB929" d="M50.2,88.7c-1,0.1-1.8,0.1-2.8-0.1c-4.2-0.7-7.1-4.4-6.8-8.7c0-0.3-0.1-0.5,0-0.6c0.1-0.3,0.4-0.1,0.7-0.2
			c4.5-0.4,8.3,2.8,8.8,7.2C50.3,87.1,50.3,87.8,50.2,88.7z"/>
		<path fill="#DC0F1B" d="M53.5,87.7c0.1-1.3-0.4-2.6-0.4-3.8c0.8-1.7,2.2-3.2,3.3-4.8c0.8-1.2,2.2-1.8,3.7-1.6
			c1.5,0.2,2.7,1.3,3,2.6c0.3,1.5-0.3,3-1.7,3.7L53.5,87.7z"/>
	</g>
</g>
</svg>
